<svg xmlns="http://www.w3.org/2000/svg" viewBox="0 0 100 100">
  <defs>
    <linearGradient id="grad1" x1="0%" y1="0%" x2="100%" y2="100%">
      <stop offset="0%" style="stop-color:#ff6b6b;stop-opacity:1" />
      <stop offset="25%" style="stop-color:#ffd93d;stop-opacity:1" />
      <stop offset="50%" style="stop-color:#6bcb77;stop-opacity:1" />
      <stop offset="75%" style="stop-color:#4d96ff;stop-opacity:1" />
      <stop offset="100%" style="stop-color:#9b59b6;stop-opacity:1" />
    </linearGradient>
  </defs>
  <!-- Outer wheel -->
  <circle cx="50" cy="50" r="45" fill="url(#grad1)" stroke="#1a1a2e" stroke-width="3"/>
  <!-- Wheel segments (simplified) -->
  <path d="M50,50 L50,5 A45,45 0 0,1 89,27 Z" fill="#ff6b6b" opacity="0.9"/>
  <path d="M50,50 L89,27 A45,45 0 0,1 89,73 Z" fill="#ffd93d" opacity="0.9"/>
  <path d="M50,50 L89,73 A45,45 0 0,1 50,95 Z" fill="#6bcb77" opacity="0.9"/>
  <path d="M50,50 L50,95 A45,45 0 0,1 11,73 Z" fill="#4d96ff" opacity="0.9"/>
  <path d="M50,50 L11,73 A45,45 0 0,1 11,27 Z" fill="#9b59b6" opacity="0.9"/>
  <path d="M50,50 L11,27 A45,45 0 0,1 50,5 Z" fill="#ff8c42" opacity="0.9"/>
  <!-- Center circle -->
  <circle cx="50" cy="50" r="12" fill="#1a1a2e" stroke="#fff" stroke-width="2"/>
  <!-- Pointer -->
  <polygon points="50,2 45,15 55,15" fill="#1a1a2e" stroke="#fff" stroke-width="1"/>
</svg>
